<mxfile host="app.diagrams.net" modified="2024-07-19T05:53:22.399Z" agent="Mozilla/5.0 (Windows NT 10.0; Win64; x64) AppleWebKit/537.36 (KHTML, like Gecko) Chrome/126.0.0.0 Safari/537.36" version="24.7.0" etag="xos5Lxui1EoSJqpww07q" type="github">
  <diagram name="第 1 页" id="-DjBwC0VOz2TOgiD5fR2">
    <mxGraphModel>
      <root>
        <mxCell id="0" />
        <mxCell id="1" parent="0" />
      </root>
    </mxGraphModel>
  </diagram>
</mxfile>
